<?xml version="1.0" encoding="utf-8" standalone="no"?>
<!DOCTYPE svg PUBLIC "-//W3C//DTD SVG 1.1//EN"
  "http://www.w3.org/Graphics/SVG/1.1/DTD/svg11.dtd">
<svg xmlns:xlink="http://www.w3.org/1999/xlink" width="871.2pt" height="871.2pt" viewBox="0 0 871.2 871.2" xmlns="http://www.w3.org/2000/svg" version="1.1">
 <metadata>
  <rdf:RDF xmlns:dc="http://purl.org/dc/elements/1.1/" xmlns:cc="http://creativecommons.org/ns#" xmlns:rdf="http://www.w3.org/1999/02/22-rdf-syntax-ns#">
   <cc:Work>
    <dc:type rdf:resource="http://purl.org/dc/dcmitype/StillImage"/>
    <dc:date>2026-03-24T16:34:53.534202</dc:date>
    <dc:format>image/svg+xml</dc:format>
    <dc:creator>
     <cc:Agent>
      <dc:title>Matplotlib v3.10.0, https://matplotlib.org/</dc:title>
     </cc:Agent>
    </dc:creator>
   </cc:Work>
  </rdf:RDF>
 </metadata>
 <defs>
  <style type="text/css">*{stroke-linejoin: round; stroke-linecap: butt}</style>
 </defs>
 <g id="figure_1">
  <g id="patch_1">
   <path d="M 0 871.2 
L 871.2 871.2 
L 871.2 0 
L 0 0 
z
" style="fill: #ffffff"/>
  </g>
  <g id="axes_1">
   <g id="patch_2">
    <path d="M 435.6 242.742857 
C 400.497412 242.742857 366.052037 252.32657 335.993661 270.45626 
C 305.935284 288.58595 281.38945 314.582747 265.01401 345.631686 
L 381.012483 406.81014 
C 386.252624 396.874479 394.107291 388.555504 403.725971 382.754003 
C 413.344652 376.952502 424.367172 373.885714 435.6 373.885714 
z
" style="fill: #c86271; stroke: #ffffff; stroke-width: 3; stroke-linejoin: miter"/>
   </g>
   <g id="patch_3">
    <path d="M 265.01401 345.631686 
C 254.350267 365.850862 247.365761 387.805865 244.387146 410.469898 
C 241.408531 433.13393 242.482977 456.148078 247.560234 478.436012 
L 375.427275 449.307524 
C 373.802553 442.175385 373.45873 434.810858 374.411887 427.558367 
C 375.365044 420.305877 377.600085 413.280276 381.012483 406.81014 
z
" style="fill: #3c837d; stroke: #ffffff; stroke-width: 3; stroke-linejoin: miter"/>
   </g>
   <g id="patch_4">
    <path d="M 247.560234 478.436012 
C 257.649452 522.725246 283.068589 562.057008 319.304641 589.448195 
C 355.540693 616.839382 400.314268 630.56698 445.676106 628.193742 
C 491.037943 625.820505 534.134605 607.495718 567.314553 576.47283 
C 600.494501 545.449941 621.670587 503.680414 627.083132 458.58016 
L 496.874602 442.953651 
C 495.142588 457.385732 488.36624 470.751981 477.748657 480.679305 
C 467.131074 490.60663 453.340142 496.470562 438.824354 497.229998 
C 424.308566 497.989434 409.981022 493.596602 398.385485 484.831422 
C 386.789949 476.066242 378.655825 463.480079 375.427275 449.307524 
z
" style="fill: #edcb63; stroke: #ffffff; stroke-width: 3; stroke-linejoin: miter"/>
   </g>
   <g id="patch_5">
    <path d="M 627.083132 458.58016 
C 629.908773 435.035388 628.367733 411.170121 622.537495 388.184281 
C 616.707257 365.198441 606.687199 343.483832 592.981121 324.132245 
L 485.961959 399.930318 
C 490.347904 406.122826 493.554322 413.071501 495.419998 420.42697 
C 497.285675 427.782439 497.778807 435.419324 496.874602 442.953651 
z
" style="fill: #947d66; stroke: #ffffff; stroke-width: 3; stroke-linejoin: miter"/>
   </g>
   <g id="patch_6">
    <path d="M 592.981121 324.132245 
C 583.60285 310.891082 572.590903 298.886246 560.206537 288.402552 
C 547.82217 277.918859 534.164106 269.039876 519.55638 261.976258 
L 462.466042 380.040402 
C 467.140514 382.30076 471.511095 385.142035 475.474092 388.496817 
C 479.437089 391.851599 482.960912 395.693146 485.961959 399.930318 
z
" style="fill: #385393; stroke: #ffffff; stroke-width: 3; stroke-linejoin: miter"/>
   </g>
   <g id="patch_7">
    <path d="M 519.55638 261.976258 
C 506.509151 255.667224 492.792246 250.848928 478.665644 247.612692 
C 464.539043 244.376457 450.092562 242.742858 435.600009 242.742857 
L 435.600003 373.885714 
C 440.23762 373.885715 444.860494 374.408466 449.381006 375.444062 
C 453.901519 376.479657 458.290928 378.021512 462.466042 380.040402 
z
" style="fill: #774e74; stroke: #ffffff; stroke-width: 3; stroke-linejoin: miter"/>
   </g>
   <g id="patch_8">
    <path d="M 435.6 24.171429 
C 413.747987 24.171429 391.930662 25.912352 370.355166 29.37767 
C 348.77967 32.842989 327.514501 38.0217 306.761556 44.864636 
L 375.20698 252.442798 
C 384.934922 249.235172 394.90297 246.807651 405.016484 245.183283 
C 415.129998 243.558915 425.356869 242.742857 435.6 242.742857 
z
" style="fill: #e9b6c2; stroke: #ffffff; stroke-width: 2; stroke-linejoin: miter"/>
   </g>
   <g id="patch_9">
    <path d="M 306.761556 44.864636 
C 256.662835 61.38385 210.205516 87.385178 169.926167 121.448947 
C 129.646818 155.512717 96.292111 197.007476 71.683212 243.667614 
L 265.014006 345.631694 
C 276.549427 323.759754 292.184446 304.309086 311.065391 288.341694 
C 329.946336 272.374302 351.723204 260.18618 375.20698 252.442798 
z
" style="fill: #c97a99; stroke: #ffffff; stroke-width: 2; stroke-linejoin: miter"/>
   </g>
   <g id="patch_10">
    <path d="M 71.683212 243.667614 
C 64.336628 257.597234 57.795875 271.937179 52.093248 286.616643 
C 46.390622 301.296106 41.535523 316.290889 37.551926 331.52695 
L 249.014965 386.815758 
C 250.882276 379.673854 253.158104 372.64505 255.83121 365.764051 
C 258.504316 358.883053 261.570294 352.161203 265.014006 345.631694 
z
" style="fill: #cee2d8; stroke: #ffffff; stroke-width: 2; stroke-linejoin: miter"/>
   </g>
   <g id="patch_11">
    <path d="M 37.551926 331.52695 
C 29.221073 363.389953 24.746135 396.138312 24.22328 429.068248 
C 23.700426 461.998184 27.133427 494.872104 34.448508 526.98353 
L 247.560238 478.43603 
C 244.131294 463.383799 242.522075 447.974149 242.767163 432.538241 
C 243.012251 417.102334 245.109878 401.75154 249.014965 386.815758 
z
" style="fill: #73aca1; stroke: #ffffff; stroke-width: 2; stroke-linejoin: miter"/>
   </g>
   <g id="patch_12">
    <path d="M 34.448508 526.98353 
C 38.050641 542.796021 42.584565 558.381707 48.02654 573.658983 
C 53.468515 588.936258 59.809027 603.878413 67.014877 618.407211 
L 262.825724 521.29088 
C 259.447982 514.480506 256.475867 507.476371 253.924941 500.315148 
C 251.374015 493.153925 249.248738 485.848135 247.560238 478.43603 
z
" style="fill: #f3efc0; stroke: #ffffff; stroke-width: 2; stroke-linejoin: miter"/>
   </g>
   <g id="patch_13">
    <path d="M 67.014877 618.407211 
C 106.370483 697.75797 170.317806 762.31736 249.290077 802.427047 
C 328.262348 842.536733 418.114683 856.091545 505.404822 841.063631 
C 592.694961 826.035717 672.841454 783.213821 733.854072 719.004266 
C 794.86669 654.794711 833.543168 572.567555 844.097353 484.624302 
L 627.083134 458.580142 
C 622.13586 499.803541 604.006261 538.347521 575.406596 568.44575 
C 546.806931 598.543979 509.238263 618.616742 468.32101 625.661077 
C 427.403758 632.705412 385.285476 626.351593 348.267224 607.550178 
C 311.248972 588.748763 281.273664 558.486548 262.825724 521.29088 
z
" style="fill: #ebdd71; stroke: #ffffff; stroke-width: 2; stroke-linejoin: miter"/>
   </g>
   <g id="patch_14">
    <path d="M 844.097353 484.624302 
C 845.877983 469.787117 846.848931 454.863931 847.005879 439.921103 
C 847.162828 424.978275 846.505543 410.037988 845.036949 395.166674 
L 627.52357 416.646879 
C 628.211973 423.617807 628.520075 430.621067 628.446506 437.625517 
C 628.372936 444.629967 627.917804 451.625211 627.083134 458.580142 
z
" style="fill: #e0d2c0; stroke: #ffffff; stroke-width: 2; stroke-linejoin: miter"/>
   </g>
   <g id="patch_15">
    <path d="M 845.036949 395.166674 
C 841.542566 359.781757 833.475753 324.998653 821.038374 291.687773 
C 808.600996 258.376893 791.897668 226.81843 771.346374 197.802099 
L 592.981113 324.132234 
C 602.614532 337.733639 610.444217 352.526669 616.274238 368.141144 
C 622.104259 383.755619 625.885578 400.060198 627.52357 416.646879 
z
" style="fill: #d0b896; stroke: #ffffff; stroke-width: 2; stroke-linejoin: miter"/>
   </g>
   <g id="patch_16">
    <path d="M 771.346374 197.802099 
C 765.459949 189.491068 759.266958 181.40147 752.7802 173.550024 
C 746.293442 165.698577 739.517389 158.090697 732.466046 150.742105 
L 574.755959 302.072862 
C 578.061276 305.517514 581.237551 309.083708 584.278219 312.764074 
C 587.318887 316.444439 590.221851 320.236438 592.981113 324.132234 
z
" style="fill: #bdcddc; stroke: #ffffff; stroke-width: 2; stroke-linejoin: miter"/>
   </g>
   <g id="patch_17">
    <path d="M 732.466046 150.742105 
C 715.57076 133.134601 697.142438 117.065077 677.399117 102.723662 
C 657.655797 88.382248 636.675652 75.825728 614.706913 65.202669 
L 519.556365 261.976251 
C 529.854212 266.95581 539.688655 272.841679 548.943336 279.564217 
C 558.198018 286.286755 566.836294 293.819344 574.755959 302.072862 
z
" style="fill: #889ec7; stroke: #ffffff; stroke-width: 2; stroke-linejoin: miter"/>
   </g>
   <g id="patch_18">
    <path d="M 614.706913 65.202669 
C 606.201802 61.089993 597.55756 57.27148 588.789561 53.753921 
C 580.021562 50.236363 571.135008 47.021846 562.145704 44.116087 
L 494.918299 252.091916 
C 499.132035 253.45399 503.297607 254.960795 507.407607 256.609651 
C 511.517606 258.258506 515.569595 260.048434 519.556365 261.976251 
z
" style="fill: #d1c7d1; stroke: #ffffff; stroke-width: 2; stroke-linejoin: miter"/>
   </g>
   <g id="patch_19">
    <path d="M 562.145704 44.116087 
C 541.736084 37.518754 520.841762 32.527564 499.65389 29.188179 
C 478.466019 25.848794 457.04941 24.171428 435.599995 24.171429 
L 435.599998 242.742857 
C 445.654411 242.742857 455.693446 243.529122 465.625261 245.094459 
C 475.557076 246.659796 485.351289 248.999416 494.918299 252.091916 
z
" style="fill: #b099bd; stroke: #ffffff; stroke-width: 2; stroke-linejoin: miter"/>
   </g>
   <g id="matplotlib.axis_1"/>
   <g id="matplotlib.axis_2"/>
  </g>
 </g>
</svg>
